<svg xmlns="http://www.w3.org/2000/svg" viewBox="0 0 283 417"><title>护网logo</title><path d="M142.06,391.81C85.66,361.25,38.15,295.13,27.32,273.46a81.78,81.78,0,0,1-9.17-38.34h0L10.65,82.87c0-6.39,2.22-10.83,10.55-15h.56C79.82,59.26,99.27,46.2,122.89,26.48h0a32.4,32.4,0,0,1,5-4.17h.27q5.43-5.41,12.51-2.5c2.22.55,4.16,1.94,6.39,3.61,1.39,1.11,2.77,2.5,4.16,3.61h0c23.62,19.73,51.68,32.51,110,41.4.28,0,.28,0,.56.28,8.61,4.44,10.55,8.61,10.55,15l-7.78,152h0c0,11.66-2.22,23.06-9.44,37.5-10.84,21.39-74.74,101.41-113.07,118.63Z" style="fill:#0033d6;fill-rule:evenodd"/><path d="M138.17,64.26c1.66,0,3.33,1.67,5.27,3.61h0c19.73,16.39,48.35,28.06,94.46,35.29a3.68,3.68,0,0,1,2.23.83c.83.55.27.55.83,1.11s0,.28,0,1.11v1.39l-7,121.13c0,8.06-2.5,17-7.5,27-7.78,15.56-51.12,77.79-84.73,93.63l-.84.27-.83-.55c-34.17-20-73.9-67.24-82.79-90.85l-.28-.83c0-.28,0-.28-.28-.56,0-.28-.27-.28-.27-.55-4.73-9.73-7.5-18.62-7.78-26.4h0V229L44,106.21a6.06,6.06,0,0,1,.28-2.22,6.16,6.16,0,0,1,2.5-1.95c46.95-7.22,66.12-16.94,85.57-32.78l.28-.28L134,67.59c.28,0,.28-.27.55-.27l.56-.56C136.22,65.65,137.05,64.26,138.17,64.26Z" style="fill:none;stroke:#fff;stroke-width:7.999868301319183px"/><text transform="translate(68.33 206.77)" style="isolation:isolate;font-size:82.4432373046875px;fill:#fff;font-family:FZCSJW--GB1-0, FZCuSong-B09S;letter-spacing:0.10099870442346845em">HW</text><polygon points="141.78 269.57 146.22 278.46 155.95 279.85 148.72 286.8 150.67 296.52 141.78 292.07 133.16 296.52 134.83 286.8 127.61 279.85 137.33 278.46 141.78 269.57" style="fill:#fff"/><polygon points="109.27 264.29 112.33 270.4 118.72 271.24 114 275.68 115.11 282.35 109.27 279.29 103.44 282.35 104.55 275.68 99.83 271.24 106.49 270.4 109.27 264.29" style="fill:#fff"/><polygon points="175.12 264.29 172.06 270.4 165.67 271.24 170.39 275.68 169.28 282.35 175.12 279.29 180.95 282.35 179.84 275.68 184.56 271.24 177.9 270.4 175.12 264.29" style="fill:#fff"/><polygon points="91.21 239.01 94.27 244.84 100.66 245.96 95.94 250.4 97.05 256.79 91.21 253.74 85.66 256.79 86.77 250.4 82.05 245.96 88.44 244.84 91.21 239.01" style="fill:#fff"/><polygon points="193.18 239.01 190.12 244.84 183.73 245.96 188.45 250.4 187.34 256.79 193.18 253.74 199.01 256.79 197.62 250.4 202.34 245.96 195.95 244.84 193.18 239.01" style="fill:#fff"/></svg>